<?xml version="1.0" encoding="utf-8"?>
<!-- Generator: Adobe Illustrator 21.0.0, SVG Export Plug-In . SVG Version: 6.00 Build 0)  -->
<svg version="1.1" id="Capa_1" xmlns="http://www.w3.org/2000/svg" xmlns:xlink="http://www.w3.org/1999/xlink" x="0px" y="0px"
	 viewBox="0 0 750 500" style="enable-background:new 0 0 750 500;" xml:space="preserve">
<style type="text/css">
	.st0{opacity:0.37;fill:url(#SVGID_1_);enable-background:new    ;}
	.st1{opacity:0.37;fill:url(#SVGID_2_);enable-background:new    ;}
	.st2{fill:url(#SVGID_3_);}
	.st3{fill:url(#SVGID_4_);}
	.st4{fill:url(#SVGID_5_);}
	.st5{fill:url(#SVGID_6_);}
	.st6{fill:url(#SVGID_7_);}
	.st7{fill:url(#SVGID_8_);}
	.st8{fill:url(#SVGID_9_);}
	.st9{fill:#181727;}
	.st10{fill:url(#SVGID_10_);}
	.st11{fill:url(#SVGID_11_);}
	.st12{fill:url(#SVGID_12_);}
	.st13{fill:url(#SVGID_13_);}
	.st14{fill:url(#SVGID_14_);}
	.st15{fill:url(#SVGID_15_);}
	.st16{fill:url(#SVGID_16_);}
	.st17{fill:#522F84;}
	.st18{fill:url(#SVGID_17_);}
	.st19{fill:url(#SVGID_18_);}
	.st20{fill:url(#SVGID_19_);}
	.st21{fill:url(#SVGID_20_);}
	.st22{fill:url(#SVGID_21_);}
	.st23{opacity:0.38;fill:url(#SVGID_22_);enable-background:new    ;}
	.st24{fill:url(#SVGID_23_);}
	.st25{fill:#DF914B;}
	.st26{fill:#FFFFFF;}
	.st27{opacity:0.5;fill:url(#SVGID_24_);enable-background:new    ;}
	.st28{fill:url(#SVGID_25_);}
	.st29{fill:url(#SVGID_26_);}
	.st30{fill:#EDFCFF;}
	.st31{fill:url(#SVGID_27_);}
	.st32{fill:url(#SVGID_28_);}
	.st33{fill:#2A2A2A;}
	.st34{fill:url(#SVGID_29_);}
</style>
<g id="OBJECTS">
	<g>
		
			<linearGradient id="SVGID_1_" gradientUnits="userSpaceOnUse" x1="387.9917" y1="114.5317" x2="404.1715" y2="358.8463" gradientTransform="matrix(1 0 0 -1 0 502)">
			<stop  offset="0" style="stop-color:#7CCFD4"/>
			<stop  offset="0.3705" style="stop-color:#7BCCD6"/>
			<stop  offset="0.6129" style="stop-color:#78C4DC"/>
			<stop  offset="0.8179" style="stop-color:#72B5E7"/>
			<stop  offset="1" style="stop-color:#6BA0F6"/>
		</linearGradient>
		<path class="st0" d="M204.2,373.5h-51.5c-13.8-14.3-17.5-37.1-9.2-55.2c7.8-17.2,24.7-28.6,34.9-44.6
			c21.8-34,11.3-84.8,40.8-112.3c14.8-13.8,36.1-17.7,56.2-19.3s40.9-1.6,59.6-9.4c23-9.7,40.3-30.4,63.9-38.2
			c26.6-8.8,58.3,2.2,73.9,25.4c9.7,14.6,13.4,32.9,24.9,46.1c18.6,21.4,51.3,23,74.4,39.3c15.9,11.2,26.6,29.4,28.7,48.7
			c2.5,23.3-6.4,49.8,7.6,68.6c6.8,9.2,17.9,14.3,25.2,23.1c7.3,8.7,9.4,16.7,7.1,27.8L204.2,373.5L204.2,373.5z"/>
		
			<linearGradient id="SVGID_2_" gradientUnits="userSpaceOnUse" x1="401.0919" y1="114.5355" x2="417.2717" y2="358.8501" gradientTransform="matrix(1 0 0 -1 0 502)">
			<stop  offset="0" style="stop-color:#7CCFD4"/>
			<stop  offset="0.3705" style="stop-color:#7BCCD6"/>
			<stop  offset="0.6129" style="stop-color:#78C4DC"/>
			<stop  offset="0.8179" style="stop-color:#72B5E7"/>
			<stop  offset="1" style="stop-color:#6BA0F6"/>
		</linearGradient>
		<path class="st1" d="M217.3,373.5h-51.5c-13.8-14.3-17.5-37.1-9.2-55.2c7.8-17.2,24.7-28.6,34.9-44.6
			c21.8-34,11.3-84.8,40.8-112.3c14.8-13.8,36.1-17.7,56.2-19.3s40.9-1.6,59.6-9.4c23-9.7,40.3-30.4,63.9-38.2
			c26.6-8.8,58.3,2.2,73.9,25.4c9.7,14.6,13.4,32.9,24.9,46.1c18.6,21.4,51.3,23,74.4,39.3c15.9,11.2,26.6,29.4,28.7,48.7
			c2.5,23.3-6.4,49.8,7.6,68.6c6.8,9.2,17.9,14.3,25.2,23.1c7.3,8.7,9.4,16.7,7.1,27.8L217.3,373.5L217.3,373.5z"/>
	</g>
	
		<linearGradient id="SVGID_3_" gradientUnits="userSpaceOnUse" x1="238.6328" y1="304.0337" x2="238.6328" y2="346.6404" gradientTransform="matrix(1 0 0 -1 0 502)">
		<stop  offset="0" style="stop-color:#F2E4D8"/>
		<stop  offset="5.039573e-03" style="stop-color:#F2E5D9"/>
		<stop  offset="0.1259" style="stop-color:#F8F0EA"/>
		<stop  offset="0.2739" style="stop-color:#FCF9F6"/>
		<stop  offset="0.478" style="stop-color:#FEFEFD"/>
		<stop  offset="1" style="stop-color:#FFFFFF"/>
	</linearGradient>
	<path class="st2" d="M335.8,197.2l-2.1,0.1H142.2l-0.5,0.1c-1.9-12.7,8-25.6,20.6-29c10.9-3,23.7-0.3,32.9-7
		c8.2-6,10.3-17.2,15.6-25.8c3.3-5.4,8.1-9.9,13.7-12.8c7-3.8,15.7-5.1,22.8-1.7c12.7,6,15.1,22.8,23.6,34c1.9,2.5,4.3,4.8,7.3,5.7
		c2.8,0.8,5.8,0.2,8.6-0.3c9.4-1.7,20.6-1.5,26.4,6c2.7,3.5,3.7,8.1,5.2,12.3s4,8.5,8.2,10c2,0.7,4.3,0.7,6.1,1.9
		C335,191.9,335.7,194.5,335.8,197.2z"/>
	
		<linearGradient id="SVGID_4_" gradientUnits="userSpaceOnUse" x1="530.7861" y1="274.1239" x2="533.4827" y2="315.652" gradientTransform="matrix(1 0 0 -1 0 502)">
		<stop  offset="0" style="stop-color:#F2E4D8"/>
		<stop  offset="5.039573e-03" style="stop-color:#F2E5D9"/>
		<stop  offset="0.1259" style="stop-color:#F8F0EA"/>
		<stop  offset="0.2739" style="stop-color:#FCF9F6"/>
		<stop  offset="0.478" style="stop-color:#FEFEFD"/>
		<stop  offset="1" style="stop-color:#FFFFFF"/>
	</linearGradient>
	<path class="st3" d="M643.8,221.3H420.5c-1.8-2.3-2-6-0.7-8.7c1.6-3.7,5.1-6.1,8.5-8.2c3.4-2.1,7.1-4,9.7-7
		c4.9-5.9,4.6-14.3,5.7-21.9c1.3-9,5.1-17.9,11.9-24c2.7-2.4,5.8-4.3,9.1-5.8c9.4-4.4,20.9-5.4,29.7,0c8.4,5.2,12.5,15.2,19.8,21.9
		c1.7,1.6,3.7,3,6,3.5c6.5,1.5,12.1-4.4,17-9c7-6.5,16.3-11.3,25.7-10.1c11.1,1.4,19.7,11,23.9,21.3c1.8,4.3,3.1,9.1,6.6,12.2
		c9,7.9,24.1-1,34.6,4.8c3.9,2.2,6.6,6.1,8.7,10C640,206.8,642.5,214,643.8,221.3z"/>
	<g>
		
			<linearGradient id="SVGID_5_" gradientUnits="userSpaceOnUse" x1="218.2" y1="201.5" x2="331.4" y2="201.5" gradientTransform="matrix(1 0 0 -1 0 502)">
			<stop  offset="0" style="stop-color:#7CCFD4"/>
			<stop  offset="0.3705" style="stop-color:#7BCCD6"/>
			<stop  offset="0.6129" style="stop-color:#78C4DC"/>
			<stop  offset="0.8179" style="stop-color:#72B5E7"/>
			<stop  offset="1" style="stop-color:#6BA0F6"/>
		</linearGradient>
		<path class="st4" d="M331.4,345.2h-16.1v28.2h-38.9v-28.2h-58.2v-28.9l60.7-88.7h36.4v88.2h16.1V345.2z M276.4,315.8v-17
			c0-3.2,0.1-7.5,0.3-12.9c0.2-5.4,0.4-8.3,0.5-8.5h-1.1c-2.3,5.1-4.8,9.9-7.7,14.4l-16.2,24H276.4z"/>
		
			<linearGradient id="SVGID_6_" gradientUnits="userSpaceOnUse" x1="265.2304" y1="118.9492" x2="264.1517" y2="173.9604" gradientTransform="matrix(1 0 0 -1 0 502)">
			<stop  offset="0" style="stop-color:#F2E4D8"/>
			<stop  offset="5.039573e-03" style="stop-color:#F2E5D9"/>
			<stop  offset="0.1259" style="stop-color:#F8F0EA"/>
			<stop  offset="0.2739" style="stop-color:#FCF9F6"/>
			<stop  offset="0.478" style="stop-color:#FEFEFD"/>
			<stop  offset="1" style="stop-color:#FFFFFF"/>
		</linearGradient>
		<path class="st5" d="M320.8,345.2h-16.1v28.2h-38.9v-28.2h-58.2v-28.9l60.7-88.7h36.4v88.2h16.1V345.2z M265.8,315.8v-17
			c0-3.2,0.1-7.5,0.3-12.9c0.2-5.4,0.4-8.3,0.5-8.5h-1.1c-2.3,5.1-4.8,9.9-7.7,14.4l-16.2,24H265.8z"/>
	</g>
	<g>
		
			<linearGradient id="SVGID_7_" gradientUnits="userSpaceOnUse" x1="435.8431" y1="206.6676" x2="548.8942" y2="206.6676" gradientTransform="matrix(0.9818 -0.1899 -0.1899 -0.9818 76.8041 607.6496)">
			<stop  offset="0" style="stop-color:#7CCFD4"/>
			<stop  offset="0.3705" style="stop-color:#7BCCD6"/>
			<stop  offset="0.6129" style="stop-color:#78C4DC"/>
			<stop  offset="0.8179" style="stop-color:#72B5E7"/>
			<stop  offset="1" style="stop-color:#6BA0F6"/>
		</linearGradient>
		<path class="st6" d="M585.3,346.2l-5.6-28.9l-10.4,2l-5.3,1l-16.7-86.6l-35.8,6.9l-42.7,98.6l5.5,28.4l57.1-11l3.3,16.8h39.6
			l-4.7-24.2l5.3-1L585.3,346.2z M515.3,329.7l-13.2,2.5l9.4-22.2l1.9-4.5c2-4.9,3.6-10.1,4.8-15.6l1.1-0.2
			c-0.1,0.3,0.3,3.1,1.1,8.5s1.5,9.6,2.1,12.8l3.2,16.7L515.3,329.7z"/>
		
			<linearGradient id="SVGID_8_" gradientUnits="userSpaceOnUse" x1="517.2551" y1="123.8908" x2="516.1765" y2="178.9021" gradientTransform="matrix(1 0 0 -1 0 502)">
			<stop  offset="0" style="stop-color:#F2E4D8"/>
			<stop  offset="5.039573e-03" style="stop-color:#F2E5D9"/>
			<stop  offset="0.1259" style="stop-color:#F8F0EA"/>
			<stop  offset="0.2739" style="stop-color:#FCF9F6"/>
			<stop  offset="0.478" style="stop-color:#FEFEFD"/>
			<stop  offset="1" style="stop-color:#FFFFFF"/>
		</linearGradient>
		<path class="st7" d="M574.9,348.2l-5.6-28.9l-15.8,3l-16.8-86.6l-25.3,4.9l-10.4,2l-42.7,98.6l5.5,28.4l10.4-2l46.7-9l2.9,14.8
			h39.6l-4.3-22.2l10.4-2L574.9,348.2z M511.5,310.1c0.2,1.1,0.4,2.1,0.6,3l3.2,16.7l-23.6,4.6l11.3-26.7c2-4.9,3.6-10.1,4.8-15.6
			l1.1-0.2c-0.1,0.3,0.3,3.1,1.1,8.5C510.5,304.2,511.1,307.4,511.5,310.1z"/>
	</g>
	<g id="XMLID_2_">
		<g>
			
				<linearGradient id="SVGID_9_" gradientUnits="userSpaceOnUse" x1="290.2608" y1="270.9337" x2="322.2608" y2="279.2033" gradientTransform="matrix(1 0 0 -1 0 502)">
				<stop  offset="0" style="stop-color:#7CCFD4"/>
				<stop  offset="0.3705" style="stop-color:#7BCCD6"/>
				<stop  offset="0.6129" style="stop-color:#78C4DC"/>
				<stop  offset="0.8179" style="stop-color:#72B5E7"/>
				<stop  offset="1" style="stop-color:#6BA0F6"/>
			</linearGradient>
			<path class="st8" d="M336.8,299.5H313L298,189c0,0-21.8-23.8-46.8-28.3l23.8-2.6l53.7,1.5L336.8,299.5z"/>
			<path class="st9" d="M243.1,238.7c0,0-13.5,19.8-7.5,36.7l25.1-36.7l-3.3-4.4L243.1,238.7z"/>
			<path class="st9" d="M313.1,299.5l-0.8,5.1c0,0-7.2,1-7.6,11.2h18.6l10.1-9.9l0.9-6.4L313.1,299.5L313.1,299.5z"/>
			
				<linearGradient id="SVGID_10_" gradientUnits="userSpaceOnUse" x1="226.7384" y1="301.4" x2="297.9945" y2="301.4" gradientTransform="matrix(1 0 0 -1 0 502)">
				<stop  offset="0" style="stop-color:#7CCFD4"/>
				<stop  offset="0.3705" style="stop-color:#7BCCD6"/>
				<stop  offset="0.6129" style="stop-color:#78C4DC"/>
				<stop  offset="0.8179" style="stop-color:#72B5E7"/>
				<stop  offset="1" style="stop-color:#6BA0F6"/>
			</linearGradient>
			<path class="st10" d="M284.3,188.9l-29.8-1.1l4.8,45.6l-20.2,7.2l-11.6-56.3c-3.4-10.5,3.7-21.5,14.7-22.7l8.9-1l0,0
				c25,4.5,46.8,28.3,46.8,28.3H284.3z"/>
		</g>
		<g>
			
				<linearGradient id="SVGID_11_" gradientUnits="userSpaceOnUse" x1="177.1" y1="442.95" x2="229.5" y2="442.95" gradientTransform="matrix(1 0 0 -1 0 502)">
				<stop  offset="0" style="stop-color:#74ABC4"/>
				<stop  offset="1.918977e-02" style="stop-color:#7DB1BF"/>
				<stop  offset="8.951110e-02" style="stop-color:#98C3B0"/>
				<stop  offset="0.1704" style="stop-color:#AED2A3"/>
				<stop  offset="0.2647" style="stop-color:#BEDD9A"/>
				<stop  offset="0.3815" style="stop-color:#CAE593"/>
				<stop  offset="0.5453" style="stop-color:#D1E98F"/>
				<stop  offset="1" style="stop-color:#D3EA8E"/>
			</linearGradient>
			<path class="st11" d="M229.5,61.7V63l-1.6,0.2c-0.4-0.9-0.9-1.6-1.3-2c-2.2-1.9-3.7-3.3-5.2-2.4c-1.2,0.7-1.1,3.9-1,5.4l-4.4,0.6
				l-38.9,4.9v-0.1c2.5-0.6,4.5-5.1,4.5-10.6c0-5.4-1.9-9.9-4.4-10.6l52.3,5.9v1.1L229.5,61.7L229.5,61.7z"/>
			
				<linearGradient id="SVGID_12_" gradientUnits="userSpaceOnUse" x1="180.0508" y1="449.1" x2="171.5755" y2="449.1" gradientTransform="matrix(1 0 0 -1 0 502)">
				<stop  offset="0" style="stop-color:#ABE9D5"/>
				<stop  offset="0.4615" style="stop-color:#AAE7D6"/>
				<stop  offset="0.6276" style="stop-color:#A5E0D8"/>
				<stop  offset="0.7461" style="stop-color:#9CD5DD"/>
				<stop  offset="0.8419" style="stop-color:#8FC4E3"/>
				<stop  offset="0.9229" style="stop-color:#7FAEEB"/>
				<stop  offset="0.9944" style="stop-color:#6B93F5"/>
				<stop  offset="1" style="stop-color:#6991F6"/>
			</linearGradient>
			<path class="st12" d="M180.1,51.2c-0.1,0.2-0.2,0.3-0.3,0.5c-0.6,1.1-0.8,2.3-1.5,3.3c-0.5,0.7-1.2,1.3-2.1,1.6
				c-0.9,0.3-1.8,0.4-2.8,0.5c-0.6,0.1-1.3,0.2-1.8,0.5c0.3-5.2,2.3-9.2,4.9-9.4l0.8,0.1C178.3,48.6,179.3,49.7,180.1,51.2z"/>
			
				<linearGradient id="SVGID_13_" gradientUnits="userSpaceOnUse" x1="181.6" y1="443.9" x2="171.5289" y2="443.9" gradientTransform="matrix(1 0 0 -1 0 502)">
				<stop  offset="0" style="stop-color:#7CCFD4"/>
				<stop  offset="0.3705" style="stop-color:#7BCCD6"/>
				<stop  offset="0.6129" style="stop-color:#78C4DC"/>
				<stop  offset="0.8179" style="stop-color:#72B5E7"/>
				<stop  offset="1" style="stop-color:#6BA0F6"/>
			</linearGradient>
			<path class="st13" d="M181.6,58.1L181.6,58.1c-0.7,0.9-1,2-1.6,2.9c-0.7,1-1.8,1.8-3,2.1c-1.1,0.3-2.3,0.1-3.4,0.6
				c-0.5,0.3-0.9,0.7-1.3,1.2c-0.5-1.7-0.8-3.7-0.8-5.9c0-0.5,0-0.9,0-1.3c0.6-0.3,1.2-0.4,1.8-0.5c0.9-0.1,1.9-0.2,2.8-0.5
				c0.8-0.3,1.6-0.9,2.1-1.6c0.7-1,1-2.2,1.5-3.3c0.1-0.2,0.2-0.3,0.3-0.5C180.9,52.9,181.5,55.4,181.6,58.1z"/>
			
				<linearGradient id="SVGID_14_" gradientUnits="userSpaceOnUse" x1="181.6196" y1="438.2" x2="172.3599" y2="438.2" gradientTransform="matrix(1 0 0 -1 0 502)">
				<stop  offset="0" style="stop-color:#ABE9D5"/>
				<stop  offset="0.4615" style="stop-color:#AAE7D6"/>
				<stop  offset="0.6276" style="stop-color:#A5E0D8"/>
				<stop  offset="0.7461" style="stop-color:#9CD5DD"/>
				<stop  offset="0.8419" style="stop-color:#8FC4E3"/>
				<stop  offset="0.9229" style="stop-color:#7FAEEB"/>
				<stop  offset="0.9944" style="stop-color:#6B93F5"/>
				<stop  offset="1" style="stop-color:#6991F6"/>
			</linearGradient>
			<path class="st14" d="M181.6,58.9c0,5.5-2,10-4.5,10.6c-0.2,0-0.4,0.1-0.6,0.1c-1.8,0-3.3-1.9-4.2-4.8c0.3-0.5,0.7-0.9,1.3-1.2
				c1-0.5,2.2-0.4,3.4-0.6c1.2-0.3,2.3-1,3-2.1c0.6-0.9,0.9-2,1.5-2.8c0,0,0,0,0-0.1C181.6,58.3,181.6,58.6,181.6,58.9z"/>
			<path class="st9" d="M260.3,56.3H276c-1.6,0.7-3,1.4-3.7,2c-0.5,0.5-0.3,1.3,0.3,2.4h-12.4v-4.4H260.3z"/>
			<path class="st9" d="M295.2,58.9v1.7h-8.5c-0.8-1.9-1.4-3.5-1.6-4.4h10.2v2.7H295.2z"/>
			
				<linearGradient id="SVGID_15_" gradientUnits="userSpaceOnUse" x1="229.5" y1="443.5" x2="260.3" y2="443.5" gradientTransform="matrix(1 0 0 -1 0 502)">
				<stop  offset="0" style="stop-color:#7CCFD4"/>
				<stop  offset="0.3705" style="stop-color:#7BCCD6"/>
				<stop  offset="0.6129" style="stop-color:#78C4DC"/>
				<stop  offset="0.8179" style="stop-color:#72B5E7"/>
				<stop  offset="1" style="stop-color:#6BA0F6"/>
			</linearGradient>
			<polygon class="st15" points="260.3,60.7 260.3,61.7 229.5,61.7 229.5,55.3 260.3,55.3 260.3,56.3 			"/>
			
				<linearGradient id="SVGID_16_" gradientUnits="userSpaceOnUse" x1="216.0428" y1="433.9345" x2="230.7311" y2="433.9345" gradientTransform="matrix(1 0 0 -1 0 502)">
				<stop  offset="0" style="stop-color:#E8BD88"/>
				<stop  offset="0.3385" style="stop-color:#E8BB85"/>
				<stop  offset="0.5599" style="stop-color:#E6B47C"/>
				<stop  offset="0.7478" style="stop-color:#E4AA6D"/>
				<stop  offset="0.916" style="stop-color:#E19A58"/>
				<stop  offset="1" style="stop-color:#DF914B"/>
			</linearGradient>
			<path class="st16" d="M230.7,72.5l-6.8,5.2c0,0-8.2-8.6-7.9-13l4.4-0.6c-0.1-1.5-0.2-4.7,1-5.4c1.5-0.9,3,0.6,5.2,2.4
				c0.4,0.4,0.9,1.1,1.3,2C229.5,66.6,230.7,72.5,230.7,72.5z"/>
			<path class="st17" d="M185.1,48.4c-0.5-1-1.9-0.1-1.5,0.8c2.8,6.1,2.4,12.8-0.9,18.6c-0.5,0.9,0.9,1.8,1.5,0.8
				C187.8,62.3,188.1,55,185.1,48.4z"/>
		</g>
		<g>
			
				<linearGradient id="SVGID_17_" gradientUnits="userSpaceOnUse" x1="302.8139" y1="422.6728" x2="302.3276" y2="405.005" gradientTransform="matrix(1 0 0 -1 0 502)">
				<stop  offset="0" style="stop-color:#776ED2"/>
				<stop  offset="0.4956" style="stop-color:#756CD0"/>
				<stop  offset="0.674" style="stop-color:#6E67CB"/>
				<stop  offset="0.8013" style="stop-color:#625EC2"/>
				<stop  offset="0.9034" style="stop-color:#5152B6"/>
				<stop  offset="0.9906" style="stop-color:#3C42A5"/>
				<stop  offset="1" style="stop-color:#3940A3"/>
			</linearGradient>
			<polygon class="st18" points="305.9,79.4 305.9,84.6 299.6,78.7 			"/>
			
				<linearGradient id="SVGID_18_" gradientUnits="userSpaceOnUse" x1="314.7276" y1="422.44" x2="313.4309" y2="381.4313" gradientTransform="matrix(1 0 0 -1 0 502)">
				<stop  offset="0" style="stop-color:#776ED2"/>
				<stop  offset="0.4956" style="stop-color:#756CD0"/>
				<stop  offset="0.674" style="stop-color:#6E67CB"/>
				<stop  offset="0.8013" style="stop-color:#625EC2"/>
				<stop  offset="0.9034" style="stop-color:#5152B6"/>
				<stop  offset="0.9906" style="stop-color:#3C42A5"/>
				<stop  offset="1" style="stop-color:#3940A3"/>
			</linearGradient>
			<path class="st19" d="M305.9,84.6l6.3,6l6,5.7c0,0,13.8-9.6,19.1-9.7c0.4,0,0.7,0,1.1,0.1c4.7,0.7,7.6,6.1,6.8,11.4
				c-0.9,5.6-0.7,11.9-6.2,12.9c-5.4,1-29.3,6.8-29.3,6.8l-26.2-35.5l3.1-2.2l6.9-4.8l1.4-1l3,2.8l1.7,1.6L305.9,84.6z"/>
			
				<linearGradient id="SVGID_19_" gradientUnits="userSpaceOnUse" x1="325.5338" y1="422.0475" x2="325.0476" y2="404.3797" gradientTransform="matrix(1 0 0 -1 0 502)">
				<stop  offset="0" style="stop-color:#776ED2"/>
				<stop  offset="0.4956" style="stop-color:#756CD0"/>
				<stop  offset="0.674" style="stop-color:#6E67CB"/>
				<stop  offset="0.8013" style="stop-color:#625EC2"/>
				<stop  offset="0.9034" style="stop-color:#5152B6"/>
				<stop  offset="0.9906" style="stop-color:#3C42A5"/>
				<stop  offset="1" style="stop-color:#3940A3"/>
			</linearGradient>
			<path class="st20" d="M322.8,80.4l15.6,6.1c-0.4-0.1-0.7-0.1-1.1-0.1c-5.3,0.1-19.1,9.7-19.1,9.7l-6-5.7L322.8,80.4z"/>
			
				<linearGradient id="SVGID_20_" gradientUnits="userSpaceOnUse" x1="221" y1="384.7987" x2="339" y2="384.7987" gradientTransform="matrix(1 0 0 -1 0 502)">
				<stop  offset="0" style="stop-color:#776ED2"/>
				<stop  offset="0.4956" style="stop-color:#756CD0"/>
				<stop  offset="0.674" style="stop-color:#6E67CB"/>
				<stop  offset="0.8013" style="stop-color:#625EC2"/>
				<stop  offset="0.9034" style="stop-color:#5152B6"/>
				<stop  offset="0.9906" style="stop-color:#3C42A5"/>
				<stop  offset="1" style="stop-color:#3940A3"/>
			</linearGradient>
			<path class="st21" d="M339,110.8l-9.1,24.7l-1.2,24.1c0,0-1.1,0.2-2.9,0.5c-8.7,1.2-34.6,4.2-50.8-1.9l6.3-29.9l-2.9-23.6
				l-35.3,3.9L221,79.9l2.9-2.2l6.8-5.2L251.6,93l32.7-14.3c1.2,0.9,2.2,1.3,2.2,1.3l-3.1,2.2l26.2,35.5
				C309.7,117.6,333.6,111.8,339,110.8z"/>
			
				<linearGradient id="SVGID_21_" gradientUnits="userSpaceOnUse" x1="272.0941" y1="434.693" x2="293.4481" y2="434.693" gradientTransform="matrix(1 0 0 -1 0 502)">
				<stop  offset="0" style="stop-color:#E8BD88"/>
				<stop  offset="0.3385" style="stop-color:#E8BB85"/>
				<stop  offset="0.5599" style="stop-color:#E6B47C"/>
				<stop  offset="0.7478" style="stop-color:#E4AA6D"/>
				<stop  offset="0.916" style="stop-color:#E19A58"/>
				<stop  offset="1" style="stop-color:#DF914B"/>
			</linearGradient>
			<path class="st22" d="M293.4,75.1l-6.9,4.8c0,0-1-0.4-2.2-1.3c-1.6-1.1-3.4-2.9-3.6-5.5c-0.3-3.5-6.1-9.1-8.1-12.5
				c-0.6-1.1-0.8-1.9-0.3-2.4c0.6-0.6,2-1.3,3.7-2c3.6-1.4,8.5-2.4,8.9-0.2c0,0.1,0,0.1,0,0.2c0.2,0.9,0.8,2.5,1.6,4.4
				C289.1,66.5,293.4,75.1,293.4,75.1z"/>
			
				<linearGradient id="SVGID_22_" gradientUnits="userSpaceOnUse" x1="283.5" y1="393.2" x2="339" y2="393.2" gradientTransform="matrix(1 0 0 -1 0 502)">
				<stop  offset="0" style="stop-color:#361183"/>
				<stop  offset="0.343" style="stop-color:#391283"/>
				<stop  offset="0.5674" style="stop-color:#421684"/>
				<stop  offset="0.7578" style="stop-color:#501E85"/>
				<stop  offset="0.9282" style="stop-color:#652886"/>
				<stop  offset="1" style="stop-color:#712E86"/>
			</linearGradient>
			<path class="st23" d="M329.9,135.5c-40-8.5-46.4-53.4-46.4-53.4l26.2,35.5l29.3-6.8L329.9,135.5z"/>
		</g>
		<g>
			
				<linearGradient id="SVGID_23_" gradientUnits="userSpaceOnUse" x1="296.6399" y1="430.1" x2="324.6991" y2="430.1" gradientTransform="matrix(1 0 0 -1 0 502)">
				<stop  offset="0" style="stop-color:#E8BD88"/>
				<stop  offset="0.3385" style="stop-color:#E8BB85"/>
				<stop  offset="0.5599" style="stop-color:#E6B47C"/>
				<stop  offset="0.7478" style="stop-color:#E4AA6D"/>
				<stop  offset="0.916" style="stop-color:#E19A58"/>
				<stop  offset="1" style="stop-color:#DF914B"/>
			</linearGradient>
			<path class="st24" d="M322.5,58.6c0.8-0.2,1.7-0.1,2,1.3c0.8,3.1-2.7,6.8-2.7,6.8l0.9,13.7l-10.6,10.1l4.1-11.9l-10.4,0.7
				l-6.3-0.7l-1.7-1.6c0,0-1.2-11.4-1.2-18.1c0-1.5,0.1-2.8,0.2-3.7l0.1-0.3c7.3,1.2,17.5-1.6,17.5-1.6s1.4,13.9,3.4,14.1
				c1.9,0.2,2.6-7.5,2.6-7.5S321.4,58.9,322.5,58.6z"/>
			<path class="st9" d="M322.6,48.5l-0.1,10.1c-1.1,0.3-2.2,1.3-2.2,1.3s-0.6,7.8-2.6,7.5c-1.9-0.2-3.4-14.1-3.4-14.1
				s-10.2,2.9-17.5,1.6l0,0c-2.3-0.4-4.3-1.2-5.6-2.6c-5.6-5.9-3.7-9.2,4.4-7.4C303.7,46.8,320.3,37.1,322.6,48.5z"/>
			<polygon class="st25" points="316.3,78.7 312.2,90.5 305.9,84.6 305.9,79.4 			"/>
			<path class="st9" d="M296.2,56.8c1.6-0.8,3.3-0.9,5-0.3c1,0.4,0.3,1.9-0.8,1.5c-1.1-0.4-2.3-0.3-3.3,0.2
				C296.2,58.7,295.2,57.3,296.2,56.8z"/>
			
				<ellipse transform="matrix(0.9986 -5.221940e-02 5.221940e-02 0.9986 -2.7494 16.3643)" class="st9" cx="311.8" cy="60.8" rx="1.2" ry="1.8"/>
			<path class="st9" d="M313.9,56.4c-1.7-0.6-3.4-0.6-5,0.2c-1,0.5-0.1,1.9,0.9,1.4s2.2-0.5,3.3-0.1
				C314.2,58.3,314.9,56.8,313.9,56.4z"/>
			<path class="st25" d="M302.1,66.5c0.5-2.6,1.9-5.2,2.8-7.7c0.2-0.5,0.9-0.1,0.8,0.4c-0.6,1.6-1.1,3.1-1.7,4.7
				c-0.2,0.5-0.7,1.4-0.7,2c-0.2,2,0.7,1.8,1.7,2.3c0.5,0.2,0.1,1-0.4,0.8C303.3,68.3,301.7,68.3,302.1,66.5z"/>
			<path class="st9" d="M301.1,61.1c-0.8-0.6-1.7-1.1-2.7-1.2c-0.6-0.1-0.9,0.9-0.3,1c0.5,0.1,1,0.2,1.5,0.4
				c-0.5,0.2-1.1,0.3-1.6,0.5c-0.6,0.2-0.4,1.2,0.3,1c0.9-0.3,1.8-0.6,2.6-0.9C301.2,61.8,301.4,61.3,301.1,61.1z"/>
			<ellipse class="st26" cx="305.2" cy="74.1" rx="2.2" ry="3.2"/>
		</g>
	</g>
	<g>
		
			<linearGradient id="SVGID_24_" gradientUnits="userSpaceOnUse" x1="406.5257" y1="50.1108" x2="407.6043" y2="124.5377" gradientTransform="matrix(1 0 0 -1 0 502)">
			<stop  offset="0" style="stop-color:#ABE9D5"/>
			<stop  offset="0.4615" style="stop-color:#AAE7D6"/>
			<stop  offset="0.6276" style="stop-color:#A5E0D8"/>
			<stop  offset="0.7461" style="stop-color:#9CD5DD"/>
			<stop  offset="0.8419" style="stop-color:#8FC4E3"/>
			<stop  offset="0.9229" style="stop-color:#7FAEEB"/>
			<stop  offset="0.9944" style="stop-color:#6B93F5"/>
			<stop  offset="1" style="stop-color:#6991F6"/>
		</linearGradient>
		<path class="st27" d="M611.8,373.5H210.5c0,0-21.6,14.3,10.5,16.8c32.1,2.4,82.2,4.7,80.9,15.6c-1.2,10.9-30.2,8.8-30.2,28
			c0,19.3,133.7,14.8,133.7,14.8s75.5,1,86.3-11.8s-30.4-24.4-23-29.5c7.5-5,61.8,10.1,69.9-2.2c8.1-12.2-1.6-20,13.3-21.6
			S609.2,388,611.8,373.5z"/>
		
			<linearGradient id="SVGID_25_" gradientUnits="userSpaceOnUse" x1="581.4" y1="54.8876" x2="581.4" y2="120.4157" gradientTransform="matrix(1 0 0 -1 0 502)">
			<stop  offset="0" style="stop-color:#ABE9D5"/>
			<stop  offset="0.4615" style="stop-color:#AAE7D6"/>
			<stop  offset="0.6276" style="stop-color:#A5E0D8"/>
			<stop  offset="0.7461" style="stop-color:#9CD5DD"/>
			<stop  offset="0.8419" style="stop-color:#8FC4E3"/>
			<stop  offset="0.9229" style="stop-color:#7FAEEB"/>
			<stop  offset="0.9944" style="stop-color:#6B93F5"/>
			<stop  offset="1" style="stop-color:#6991F6"/>
		</linearGradient>
		<ellipse class="st28" cx="581.4" cy="398.8" rx="30.3" ry="8.6"/>
		
			<linearGradient id="SVGID_26_" gradientUnits="userSpaceOnUse" x1="258.4" y1="54.8876" x2="258.4" y2="120.4157" gradientTransform="matrix(1 0 0 -1 0 502)">
			<stop  offset="0" style="stop-color:#ABE9D5"/>
			<stop  offset="0.4615" style="stop-color:#AAE7D6"/>
			<stop  offset="0.6276" style="stop-color:#A5E0D8"/>
			<stop  offset="0.7461" style="stop-color:#9CD5DD"/>
			<stop  offset="0.8419" style="stop-color:#8FC4E3"/>
			<stop  offset="0.9229" style="stop-color:#7FAEEB"/>
			<stop  offset="0.9944" style="stop-color:#6B93F5"/>
			<stop  offset="1" style="stop-color:#6991F6"/>
		</linearGradient>
		<ellipse class="st29" cx="258.4" cy="406.3" rx="26.5" ry="6.6"/>
		<ellipse class="st30" cx="410.4" cy="431.9" rx="30.1" ry="5.8"/>
	</g>
	<g>
		<g>
			
				<linearGradient id="SVGID_27_" gradientUnits="userSpaceOnUse" x1="391.2499" y1="165.7218" x2="496.5954" y2="165.7218" gradientTransform="matrix(0.9797 0.2002 0.2002 -0.9797 -64.1779 399.8665)">
				<stop  offset="0" style="stop-color:#7CCFD4"/>
				<stop  offset="0.3705" style="stop-color:#7BCCD6"/>
				<stop  offset="0.6129" style="stop-color:#78C4DC"/>
				<stop  offset="0.8179" style="stop-color:#72B5E7"/>
				<stop  offset="1" style="stop-color:#6BA0F6"/>
			</linearGradient>
			<path class="st31" d="M450.2,296.3c-6.2-14.1-17.8-22.9-34.8-26.4c-1.9-0.4-3.7-0.7-5.4-0.9c-15-1.9-27.4,1.7-37.1,10.7
				C362,289.8,354,307.6,348.8,333c-3.2,15.6-4.1,29-2.7,40.4h37.2c-0.5-6.6,0.8-17.5,3.9-32.6c3.3-16.3,6.6-27.3,9.9-33
				c1.9-3.3,4.1-5.5,6.5-6.6c1.7-0.8,3.6-1,5.6-0.5c4.8,1,7.5,4.9,8.2,11.6c0.7,6.8-0.5,18.1-3.8,33.9c-2.4,11.9-4.9,20.9-7.3,27.2
				H447c1.9-5.8,3.5-12.3,5-19.3c1-4.7,1.7-9.1,2.2-13.4C456.6,322.5,455.2,307.7,450.2,296.3z"/>
			
				<linearGradient id="SVGID_28_" gradientUnits="userSpaceOnUse" x1="390.7859" y1="121.411" x2="389.7072" y2="176.4223" gradientTransform="matrix(1 0 0 -1 0 502)">
				<stop  offset="0" style="stop-color:#F2E4D8"/>
				<stop  offset="5.039573e-03" style="stop-color:#F2E5D9"/>
				<stop  offset="0.1259" style="stop-color:#F8F0EA"/>
				<stop  offset="0.2739" style="stop-color:#FCF9F6"/>
				<stop  offset="0.478" style="stop-color:#FEFEFD"/>
				<stop  offset="1" style="stop-color:#FFFFFF"/>
			</linearGradient>
			<path class="st32" d="M439.8,294.2c-5.5-12.7-15.5-21.1-29.8-25.2c-1.6-0.5-3.3-0.9-5-1.2c-17.5-3.6-31.6-0.3-42.5,9.8
				c-10.9,10.1-18.9,27.9-24.1,53.3c-1.1,5.2-1.9,10.1-2.4,14.8c-1.2,10.3-1.2,19.6,0,27.7h37.1c0-0.2-0.1-0.5-0.1-0.7
				c-0.8-6.5,0.5-17.8,3.8-34c3.3-16.3,6.6-27.3,9.9-33s7.3-8.1,12-7.1c2,0.4,3.6,1.3,4.8,2.7c1.9,2,3,5,3.4,8.9
				c0.7,6.8-0.5,18.1-3.8,33.9c-2.7,13.3-5.5,23-8.2,29.3h40.9c2.2-6.4,4.1-13.5,5.7-21.4C446.6,327.6,446,308.3,439.8,294.2z"/>
		</g>
		<g>
			<polygon class="st33" points="468.2,198.9 467.9,199.1 441.8,219.4 425.5,232.1 411.9,269.7 408.2,268.3 422.1,229.6 
				465.7,195.7 			"/>
		</g>
		
			<linearGradient id="SVGID_29_" gradientUnits="userSpaceOnUse" x1="441.81" y1="256.75" x2="484.5118" y2="256.75" gradientTransform="matrix(1 0 0 -1 0 502)">
			<stop  offset="0" style="stop-color:#776ED2"/>
			<stop  offset="0.4956" style="stop-color:#756CD0"/>
			<stop  offset="0.674" style="stop-color:#6E67CB"/>
			<stop  offset="0.8013" style="stop-color:#625EC2"/>
			<stop  offset="0.9034" style="stop-color:#5152B6"/>
			<stop  offset="0.9906" style="stop-color:#3C42A5"/>
			<stop  offset="1" style="stop-color:#3940A3"/>
		</linearGradient>
		<path class="st34" d="M480.7,283.2c-3,3.5-7,6-11,8.3l-0.3-0.5c1.6-2,3.2-4.4,2.8-6.9c-0.3-1.7-1.6-3.1-2.9-4.2
			c-2.2-1.9-4.6-3.6-6.7-5.6s-3.9-4.6-4.2-7.5c-0.4-3.8,1.6-7.4,2.4-11.1c0.3-1.5,0.4-3.1-0.2-4.5c-1.3-3.2-5.4-3.9-8.6-5.2
			c-2.9-1.2-5.6-3.3-6.4-6.3c-1.2-4.3,1.9-8.8,1.5-13.3c-0.3-3.1-2.5-5.9-5.4-7.1l26.1-20.3c4.4,3.8,8.3,8.9,8.3,14.7
			c0,3.7-1.5,7.2-2.5,10.7c-0.4,1.4-0.8,2.9-0.5,4.3c0.4,2.2,2.2,3.9,3.8,5.5c3.4,3.2,6.8,7.2,6.7,11.8c-0.1,5.2-4.5,9.9-3.8,15.1
			c0.5,3.3,3,6,4.1,9.1C485.4,274.8,483.7,279.7,480.7,283.2z"/>
	</g>
</g>
<g id="DESIGNED_BY_FREEPIK">
</g>
</svg>
